# xmcd
#
# Track frame offsets:
#	150
#	8562
#	17596
#	25885
#	36810
#	43739
#	54849
#	64012
#	72423
#	83735
#	94524
#
# Disc length: 1385 seconds
#
# Revision: 1
# Processed by: cddbd v1.5.2PL0 Copyright (c) Steve Scherf et al.
# Submitted via: audiograbber 1.80
#
DISCID=7b05670b
DTITLE=Johnny Cash - The Man,The World,His Music (Disk2)
DYEAR=1900
DGENRE=
TTITLE0=Sugartime
TTITLE1=Life Goes On
TTITLE2=Wreck Of The Old 97
TTITLE3=Belshazah
TTITLE4=You'Re My Baby
TTITLE5=Fools Hall Of Fame
TTITLE6=Blue Train
TTITLE7=Country Boy
TTITLE8=Wide Open Road
TTITLE9=I Just Thought You'd Like To Know
TTITLE10=Down The Street To 301
EXTD=
EXTT0=
EXTT1=
EXTT2=
EXTT3=
EXTT4=
EXTT5=
EXTT6=
EXTT7=
EXTT8=
EXTT9=
EXTT10=
PLAYORDER=
